<?xml version="1.0" encoding="iso-8859-1"?>
<!-- Generator: Adobe Illustrator 19.0.0, SVG Export Plug-In . SVG Version: 6.00 Build 0)  -->
<svg version="1.1" id="Layer_1" xmlns="http://www.w3.org/2000/svg" xmlns:xlink="http://www.w3.org/1999/xlink" x="0px" y="0px"
	 viewBox="0 0 512.001 512.001" style="enable-background:new 0 0 512.001 512.001;" xml:space="preserve">
<path style="fill:#FFCA66;" d="M453.781,426.42c-9.368,0-16.963,7.594-16.963,16.963v29.6c0,9.368,7.594,16.963,16.963,16.963
	s16.963-7.594,16.963-16.963v-29.6C470.743,434.014,463.149,426.42,453.781,426.42z"/>
<path style="opacity:0.15;fill:#293133;enable-background:new    ;" d="M452.589,472.982v-29.6c0-6.519,3.683-12.172,9.077-15.012
	c-2.357-1.241-5.037-1.951-7.886-1.951c-9.368,0-16.963,7.594-16.963,16.963v29.6c0,9.368,7.594,16.963,16.963,16.963
	c2.849,0,5.529-0.711,7.886-1.951C456.272,485.154,452.589,479.501,452.589,472.982z"/>
<path style="fill:#66E6FF;" d="M97.096,427.652c-9.368,0-16.963,7.594-16.963,16.963v29.6c0,9.368,7.594,16.963,16.963,16.963
	s16.963-7.594,16.963-16.963v-29.6C114.058,435.246,106.464,427.652,97.096,427.652z"/>
<path style="opacity:0.15;fill:#293133;enable-background:new    ;" d="M96.082,472.982v-29.6c0-6.519,3.683-12.172,9.077-15.012
	c-2.357-1.241-5.037-1.951-7.886-1.951c-9.368,0-16.963,7.594-16.963,16.963v29.6c0,9.368,7.594,16.963,16.963,16.963
	c2.849,0,5.529-0.711,7.886-1.951C99.765,485.154,96.082,479.501,96.082,472.982z"/>
<path style="fill:#FF8095;" d="M275.527,426.42c-9.368,0-16.963,7.594-16.963,16.963v29.6c0,9.368,7.594,16.963,16.963,16.963
	c9.368,0,16.963-7.594,16.963-16.963v-29.6C292.49,434.014,284.896,426.42,275.527,426.42z"/>
<path style="opacity:0.15;fill:#293133;enable-background:new    ;" d="M274.432,473.114v-29.6c0-6.519,3.683-12.172,9.077-15.012
	c-2.357-1.241-5.037-1.951-7.886-1.951c-9.368,0-16.963,7.594-16.963,16.963v29.6c0,9.368,7.594,16.963,16.963,16.963
	c2.849,0,5.529-0.711,7.886-1.951C278.114,485.286,274.432,479.633,274.432,473.114z"/>
<path style="fill:#66E6FF;" d="M33.901,113.575c-14.5,0-26.255,11.755-26.255,26.255v121.98c0,14.5,11.755,26.255,26.255,26.255
	h21.642V113.575H33.901z"/>
<path style="opacity:0.15;fill:#293133;enable-background:new    ;" d="M26.311,114.694v172.251c2.403,0.725,4.95,1.119,7.59,1.119
	h21.642V113.575H33.901C31.261,113.575,28.714,113.969,26.311,114.694z"/>
<path style="fill:#FFCA66;" d="M97.274,22.059L97.274,22.059c-27.931,0-50.573,22.642-50.573,50.573v338.55
	c0,27.931,22.642,50.573,50.573,50.573l0,0c27.931,0,50.573-22.642,50.573-50.573V72.633
	C147.847,44.701,125.205,22.059,97.274,22.059z"/>
<g>
	<path style="fill:#FF8095;" d="M147.847,207.324v-32.096c-14.467,5.058-32.283,7.884-50.574,7.884s-36.106-2.825-50.573-7.883
		v32.095c15.001,4.097,32.123,6.372,50.573,6.372C115.724,213.696,132.846,211.421,147.847,207.324z"/>
	<path style="fill:#FF8095;" d="M97.273,461.754L97.273,461.754c27.931,0,50.573-22.642,50.573-50.573v-21.498
		c-15.001,4.096-32.123,6.372-50.574,6.372c-18.45,0-35.572-2.275-50.573-6.372v21.498C46.7,439.112,69.342,461.754,97.273,461.754z
		"/>
	<path style="fill:#FF8095;" d="M212.154,113.575c-14.5,0-26.255,11.755-26.255,26.255v121.98c0,14.5,11.755,26.255,26.255,26.255
		h21.642V113.575H212.154z"/>
</g>
<path style="opacity:0.15;fill:#293133;enable-background:new    ;" d="M204.563,114.694v172.251
	c2.404,0.725,4.951,1.119,7.591,1.119h21.642V113.575h-21.642C209.515,113.575,206.967,113.969,204.563,114.694z"/>
<path style="fill:#66E6FF;" d="M275.527,22.059L275.527,22.059c-27.931,0-50.573,22.642-50.573,50.573v338.55
	c0,27.931,22.642,50.573,50.573,50.573l0,0c27.931,0,50.573-22.642,50.573-50.573V72.633
	C326.1,44.701,303.458,22.059,275.527,22.059z"/>
<g>
	<path style="fill:#FFCA66;" d="M326.1,207.324v-32.096c-14.467,5.058-32.283,7.884-50.574,7.884
		c-18.291,0-36.106-2.825-50.573-7.883v32.095c15.001,4.097,32.123,6.372,50.573,6.372C293.978,213.696,311.1,211.421,326.1,207.324
		z"/>
	<path style="fill:#FFCA66;" d="M275.527,461.754L275.527,461.754c27.931,0,50.573-22.642,50.573-50.573v-21.498
		c-15.001,4.096-32.123,6.372-50.574,6.372c-18.45,0-35.572-2.275-50.573-6.372v21.498
		C224.953,439.112,247.596,461.754,275.527,461.754z"/>
	<path style="fill:#FFCA66;" d="M390.409,113.575c-14.5,0-26.255,11.755-26.255,26.255v121.98c0,14.5,11.755,26.255,26.255,26.255
		h21.642V113.575H390.409z"/>
</g>
<path style="opacity:0.15;fill:#293133;enable-background:new    ;" d="M382.817,114.694v172.251
	c2.404,0.725,4.951,1.119,7.591,1.119h21.642V113.575h-21.642C387.768,113.575,385.221,113.969,382.817,114.694z"/>
<path style="fill:#FF8095;" d="M453.781,22.059L453.781,22.059c-27.931,0-50.573,22.642-50.573,50.573v338.55
	c0,27.931,22.642,50.573,50.573,50.573l0,0c27.931,0,50.573-22.642,50.573-50.573V72.633
	C504.354,44.701,481.711,22.059,453.781,22.059z"/>
<g>
	<path style="opacity:0.15;fill:#293133;enable-background:new    ;" d="M76.776,411.181V72.633c0-22.694,14.948-41.897,35.536-48.3
		c-4.75-1.478-9.801-2.273-15.038-2.273l0,0c-27.931,0-50.573,22.642-50.573,50.573v338.548c0,27.931,22.642,50.573,50.573,50.573
		l0,0c5.236,0,10.287-0.796,15.038-2.273C91.724,453.078,76.776,433.875,76.776,411.181z"/>
	<path style="opacity:0.15;fill:#293133;enable-background:new    ;" d="M255.03,411.181V72.633c0-22.694,14.948-41.897,35.536-48.3
		c-4.75-1.478-9.801-2.273-15.038-2.273l0,0c-27.931,0-50.573,22.642-50.573,50.573v338.548c0,27.931,22.642,50.573,50.573,50.573
		l0,0c5.236,0,10.287-0.796,15.038-2.273C269.977,453.078,255.03,433.875,255.03,411.181z"/>
</g>
<g>
	<path style="fill:#66E6FF;" d="M504.354,207.324v-32.096c-14.467,5.058-32.283,7.884-50.574,7.884
		c-18.291,0-36.106-2.825-50.573-7.883v32.095c15.001,4.097,32.123,6.372,50.573,6.372
		C472.231,213.696,489.353,211.421,504.354,207.324z"/>
	<path style="fill:#66E6FF;" d="M453.781,461.754L453.781,461.754c27.931,0,50.573-22.642,50.573-50.573v-21.498
		c-15.001,4.096-32.123,6.372-50.574,6.372c-18.45,0-35.572-2.275-50.573-6.372v21.498
		C403.208,439.112,425.85,461.754,453.781,461.754z"/>
</g>
<path style="opacity:0.15;fill:#293133;enable-background:new    ;" d="M433.283,411.181V72.633c0-22.694,14.948-41.897,35.536-48.3
	c-4.75-1.478-9.801-2.273-15.038-2.273l0,0c-27.931,0-50.573,22.642-50.573,50.573v338.548c0,27.931,22.642,50.573,50.573,50.573
	l0,0c5.236,0,10.287-0.796,15.038-2.273C448.231,453.078,433.283,433.875,433.283,411.181z"/>
<g>
	<path style="fill:#26150C;" d="M97.273,14.413c-32.102,0-58.219,26.117-58.219,58.219v33.296h-5.153
		C15.208,105.929,0,121.136,0,139.83v121.978c0,18.693,15.208,33.901,33.901,33.901h5.153v93.972v21.498
		c0,23.311,13.777,43.455,33.612,52.745v9.056c0,13.569,11.04,24.609,24.609,24.609s24.609-11.04,24.609-24.609v-9.056
		c19.834-9.291,33.61-29.435,33.61-52.745v-21.498V207.324v-32.096V72.632C155.493,40.53,129.376,14.413,97.273,14.413z
		 M39.054,175.228v32.096v73.093h-5.153c-10.261,0-18.609-8.348-18.609-18.609V139.83c0-10.26,8.348-18.609,18.609-18.609h5.153
		V175.228z M106.589,472.982c0,5.136-4.179,9.316-9.316,9.316c-5.136,0-9.316-4.179-9.316-9.316v-4.328
		c0.078,0.012,0.157,0.021,0.234,0.033c5.762,0.907,12.694,1.445,18.325-0.178C106.663,469.965,106.589,471.498,106.589,472.982z
		 M140.201,411.181c0,29.113-30.762,50.421-58.022,40.182c-16.544-6.215-27.833-22.515-27.833-40.182v-11.782
		c13.45,2.858,27.845,4.302,42.927,4.302s29.477-1.445,42.928-4.302C140.201,399.399,140.201,411.176,140.201,411.181z
		 M140.201,383.732c-13.296,3.105-27.706,4.676-42.928,4.676c-15.221,0-29.632-1.571-42.927-4.676v-95.668v-71.052
		c13.456,2.86,27.838,4.331,42.927,4.331c15.089,0,29.472-1.471,42.928-4.331V383.732z M140.201,201.373
		c-13.296,3.104-27.707,4.676-42.928,4.676s-29.632-1.572-42.927-4.676v-15.855c13.14,3.403,28.016,5.238,42.927,5.238
		c14.912,0,29.788-1.835,42.928-5.238V201.373z M140.201,169.654c-12.752,3.762-27.771,5.811-42.928,5.811
		c-15.155,0-30.175-2.048-42.927-5.811v-56.08V72.632c0-23.669,19.257-42.927,42.927-42.927S140.2,48.962,140.2,72.632v97.022
		H140.201z"/>
	<path style="fill:#26150C;" d="M275.527,14.413c-32.102,0-58.219,26.117-58.219,58.219v33.296h-5.153
		c-18.693,0-33.901,15.208-33.901,33.901v121.978c0,18.693,15.208,33.901,33.901,33.901h5.153v93.972v21.498
		c0,23.31,13.777,43.454,33.61,52.745v9.056c0,13.569,11.04,24.609,24.609,24.609c13.569,0,24.609-11.04,24.609-24.609v-9.056
		c19.834-9.291,33.61-29.435,33.61-52.745V389.68V207.324v-32.096V72.632C333.747,40.53,307.629,14.413,275.527,14.413z
		 M217.307,175.228v32.096v73.093h-5.153c-10.261,0-18.609-8.348-18.609-18.609V139.83c0-10.26,8.348-18.609,18.609-18.609h5.153
		V175.228z M284.844,472.982c0,5.136-4.179,9.316-9.316,9.316c-5.136,0-9.316-4.179-9.316-9.316v-4.328
		c0.078,0.013,0.158,0.021,0.237,0.033c3.053,0.483,6.145,0.716,9.235,0.706c1.546-0.004,3.092-0.07,4.632-0.197
		c1.481-0.121,3.036-0.508,4.504-0.516C284.991,470.071,284.844,471.574,284.844,472.982z M318.454,411.181
		c0,8.139-2.346,16.195-6.731,23.052c-4.28,6.695-10.416,12.154-17.57,15.614c-8.863,4.286-19.164,5.332-28.732,3.045
		c-7.936-1.894-15.245-6.154-20.884-12.04c-5.527-5.768-9.396-13.054-11.032-20.876c-0.604-2.889-0.906-5.842-0.906-8.794v-11.782
		c13.45,2.858,27.845,4.302,42.927,4.302s29.477-1.445,42.928-4.302v11.782H318.454z M318.454,383.732
		c-13.296,3.105-27.706,4.676-42.928,4.676c-15.221,0-29.632-1.571-42.927-4.676v-95.668v-71.052
		c13.456,2.86,27.838,4.331,42.927,4.331c15.089,0,29.472-1.471,42.928-4.331V383.732z M318.454,201.373
		c-13.296,3.104-27.707,4.676-42.928,4.676s-29.632-1.572-42.927-4.676v-15.855c13.14,3.403,28.016,5.238,42.927,5.238
		c14.912,0,29.788-1.835,42.928-5.238V201.373z M318.454,169.654c-12.752,3.762-27.771,5.811-42.928,5.811
		c-15.155,0-30.175-2.048-42.927-5.811v-56.08V72.632c0-23.669,19.257-42.927,42.927-42.927s42.927,19.257,42.927,42.927v97.022
		H318.454z"/>
	<path style="fill:#26150C;" d="M453.781,14.413c-32.102,0-58.219,26.117-58.219,58.219v33.296h-5.153
		c-18.693,0-33.901,15.208-33.901,33.901v121.978c0,18.693,15.208,33.901,33.901,33.901h5.153v93.972v21.498
		c0,23.31,13.777,43.454,33.61,52.745v9.056c0,13.569,11.04,24.609,24.609,24.609s24.609-11.04,24.609-24.609v-9.056
		c19.834-9.291,33.612-29.435,33.612-52.745V389.68V207.324v-32.096V72.632C512,40.53,485.883,14.413,453.781,14.413z
		 M395.562,175.228v32.096v73.093h-5.153c-10.261,0-18.609-8.348-18.609-18.609V139.83c0-10.26,8.348-18.609,18.609-18.609h5.153
		V175.228z M463.097,472.982c0,5.136-4.179,9.316-9.316,9.316s-9.316-4.179-9.316-9.316v-4.328c0.078,0.013,0.158,0.021,0.237,0.033
		c5.995,0.948,12.165,0.952,18.161,0c0.078-0.012,0.157-0.021,0.234-0.033v4.328H463.097z M496.708,411.181
		c0,8.164-2.361,16.245-6.772,23.117c-4.307,6.71-10.478,12.171-17.669,15.616c-8.882,4.255-19.201,5.264-28.761,2.936
		c-8.369-2.039-16.017-6.697-21.749-13.116c-3.59-4.022-6.456-8.735-8.292-13.808c-0.482-1.314-0.901-2.658-1.255-4.029
		c-0.353-1.37-0.641-2.767-0.858-4.187c-0.326-2.129-0.495-4.31-0.495-6.528v-11.782c13.45,2.858,27.844,4.302,42.927,4.302
		c15.083,0,29.477-1.445,42.928-4.302v11.782H496.708z M496.708,383.732c-13.296,3.105-27.706,4.676-42.928,4.676
		c-15.221,0-29.632-1.571-42.927-4.676v-95.668v-71.052c13.456,2.86,27.838,4.331,42.927,4.331s29.472-1.471,42.928-4.331V383.732z
		 M496.708,201.373c-13.296,3.104-27.707,4.676-42.928,4.676c-15.221,0-29.632-1.572-42.927-4.676v-15.855
		c13.14,3.403,28.015,5.238,42.927,5.238c14.912,0,29.788-1.835,42.928-5.238V201.373z M496.708,169.654
		c-12.752,3.762-27.771,5.811-42.928,5.811c-15.156,0-30.175-2.048-42.927-5.811v-56.08V72.632
		c0-23.669,19.257-42.927,42.927-42.927s42.927,19.257,42.927,42.927v97.022H496.708z"/>
</g>
<g>
</g>
<g>
</g>
<g>
</g>
<g>
</g>
<g>
</g>
<g>
</g>
<g>
</g>
<g>
</g>
<g>
</g>
<g>
</g>
<g>
</g>
<g>
</g>
<g>
</g>
<g>
</g>
<g>
</g>
</svg>
